<svg width="400" height="400" viewBox="0 0 400 400" fill="none" xmlns="http://www.w3.org/2000/svg">
<rect width="400" height="400" fill="#242424"/>
<rect x="15" y="15" width="370" height="370" rx="26" fill="#FFE8CE"/>
<circle cx="199.669" cy="97.6689" r="33" transform="rotate(-45 199.669 97.6689)" fill="#242424"/>
<path d="M201.226 135.722C213.926 157.277 226.733 174.331 241.799 189.14C256.113 203.209 272.178 214.968 291.524 226.604C268.36 235.311 250.021 246.178 234.879 261.508C220.148 276.421 209.026 294.977 199.155 318.38C189.357 297.143 178.329 280.023 164.007 265.658C149.238 250.845 131.47 239.463 109.134 229.317C131.144 218.873 148.775 207.443 163.512 192.785C178.963 177.417 190.715 159.018 201.226 135.722Z" stroke="#242424" stroke-width="24"/>
<path d="M201.463 40.1654C219.94 72.6278 238.22 97.5526 259.953 118.915C280.915 139.519 304.746 156.463 334.308 173.655C299.231 185.824 272.377 200.986 250.619 223.013C229.292 244.605 213.561 272.094 199.351 307.923C185.182 275.172 169.463 249.648 148.53 228.651C127.141 207.198 100.91 191.073 66.8336 176.486C100.432 161.375 126.492 145.135 147.871 123.871C169.984 101.877 186.484 75.1124 201.463 40.1654Z" stroke="#242424" stroke-width="24"/>
</svg>
