<svg width="77" height="83" viewBox="0 0 77 83" fill="none" xmlns="http://www.w3.org/2000/svg">
<path d="M77 44.5C77 65.763 59.763 83 38.5 83C17.237 83 0 65.763 0 44.5C0 23.237 17.237 6 38.5 6C59.763 6 77 23.237 77 44.5Z" fill="black" fill-opacity="0.75"/>
<path d="M77 38.5C77 59.763 59.763 77 38.5 77C17.237 77 0 59.763 0 38.5C0 17.237 17.237 0 38.5 0C59.763 0 77 17.237 77 38.5Z" fill="#1B1B1B"/>
<path d="M73 38.5C73 57.5538 57.5538 73 38.5 73C19.4462 73 4 57.5538 4 38.5C4 19.4462 19.4462 4 38.5 4C57.5538 4 73 19.4462 73 38.5Z" fill="#FFF8F1"/>
<path d="M12.8649 60V54.9H63.1351V60H12.8649Z" fill="#1B1B1B"/>
<path fill-rule="evenodd" clip-rule="evenodd" d="M7 23.28L12.027 50.82H63.973L69 23.28L58.9459 31.44C57.8647 39.7758 53.9189 42.66 50.5676 41.64C47.2162 40.62 43.8649 36.54 46.3784 28.38L38 9L29.6216 28.38C32.1351 36.54 28.7838 40.62 25.4324 41.64C22.0811 42.66 18.1353 39.7758 17.0541 31.44L7 23.28ZM34.6486 40.62L38 36.54L41.3513 40.62L38 45.72L34.6486 40.62Z" fill="#1B1B1B"/>
</svg>
