<svg width="78" height="83" viewBox="0 0 78 83" fill="none" xmlns="http://www.w3.org/2000/svg">
<path d="M77 44.5C77 65.763 59.763 83 38.5 83C17.237 83 0 65.763 0 44.5C0 23.237 17.237 6 38.5 6C59.763 6 77 23.237 77 44.5Z" fill="black" fill-opacity="0.75"/>
<path d="M77.0287 38.5C77.0287 59.763 59.7916 77 38.5287 77C17.2657 77 0.0286841 59.763 0.0286841 38.5C0.0286841 17.237 17.2657 0 38.5287 0C59.7916 0 77.0287 17.237 77.0287 38.5Z" fill="#1B1B1B"/>
<path d="M72.968 38.5C72.968 57.5538 57.5218 73.9296 38.468 73.9296C19.4142 73.9296 3.96802 57.5538 3.96802 38.5C3.96802 19.4462 19.4142 4 38.468 4C57.5218 4 72.968 19.4462 72.968 38.5Z" fill="#FFF8F1"/>
<path d="M39.8948 8.35919C43.9262 11.0451 47.0675 12.6318 50.3503 13.5635C53.6434 14.4981 57.2375 14.8185 62.2452 14.7633L64.6009 14.7379L64.7683 17.0685C65.7326 30.4588 63.6517 41.1576 59.193 50.003C54.7389 58.839 48.0054 65.6404 39.962 71.3849L38.468 73.9296L37.0381 71.3849C28.9947 65.6404 22.2612 58.839 17.8071 50.003C13.3484 41.1576 11.2675 30.4588 12.2318 17.0685L12.3992 14.7379L14.7549 14.7633C19.7626 14.8185 23.3566 14.4981 26.6498 13.5635C29.9326 12.6318 33.0739 11.0451 37.1053 8.35919L38.5007 7.42959L39.8948 8.35919ZM38.4994 13.3877C34.8158 15.732 31.5567 17.3344 28.0268 18.3363C24.6905 19.2831 21.2242 19.6611 17.0875 19.7228C16.5616 31.2875 18.5408 40.359 22.2828 47.7827C26.0147 55.1861 31.5825 61.1136 38.4994 66.2873C45.4167 61.1134 50.9852 55.1864 54.7173 47.7827C58.4593 40.359 60.4373 31.2876 59.9114 19.7228C55.7752 19.661 52.3093 19.283 48.9733 18.3363C45.4431 17.3343 42.1835 15.7323 38.4994 13.3877Z" fill="#1B1B1B"/>
<path d="M34.7464 17.866C29.5309 21.068 25.7373 22.4293 19.7322 22.2098C19.2348 38.894 24.737 50.1339 34.7465 60.0625L34.7464 17.866Z" fill="#1B1B1B"/>
<path d="M42.2536 17.866C47.4691 21.068 51.2628 22.4293 57.2678 22.2098C57.7653 38.894 52.2631 50.1339 42.2536 60.0625L42.2536 17.866Z" fill="#1B1B1B"/>
</svg>
