<svg width="77" height="83" viewBox="0 0 77 83" fill="none" xmlns="http://www.w3.org/2000/svg">
<path d="M77 44.5C77 65.763 59.763 83 38.5 83C17.237 83 0 65.763 0 44.5C0 23.237 17.237 6 38.5 6C59.763 6 77 23.237 77 44.5Z" fill="black" fill-opacity="0.75"/>
<path fill-rule="evenodd" clip-rule="evenodd" d="M77 38.5C77 59.763 59.763 77 38.5 77C17.237 77 0 59.763 0 38.5C0 17.237 17.237 0 38.5 0C59.763 0 77 17.237 77 38.5ZM73.6713 38.3354C73.6713 57.8508 57.851 73.6711 38.3357 73.6711C18.8204 73.6711 3.00008 57.8508 3.00008 38.3354C3.00008 19.0358 18.4727 3.34989 37.6902 3.00561L37.6957 3L37.7009 3.00542C37.9121 3.0017 38.1237 2.99983 38.3357 2.99983C57.851 2.99983 73.6713 18.8201 73.6713 38.3354Z" fill="#FFF8F1"/>
<path d="M27.3478 32.5714L17 28.875V60.2946C20.8934 65.0358 23.2775 67.5954 27.9565 72V49.2054C23.9171 49.0363 21.2609 44.8929 21.2609 43.0446C21.2609 41.1964 28.9338 40.3357 34.0435 43.0446C34.3478 43.3527 34.3478 46.279 34.3478 49.2054C34.3478 52.1317 34.3478 55.058 34.6522 55.3661C35.2609 55.9821 38.3043 57.8304 38.3043 57.8304C38.3043 57.8304 40.7391 55.9821 41.3478 55.3661C41.6522 55.058 41.6522 52.1317 41.6522 49.2054C41.6522 46.279 41.6522 43.3527 41.9565 43.0446C47.0662 40.3357 54.7391 41.1964 54.7391 43.0446C54.7391 44.8929 52.0829 49.0363 48.0435 49.2054V72C52.7225 67.5954 55.1066 65.0358 59 60.2946V28.875L48.6522 32.5714C47.7496 18.1959 45.8238 11.3317 37.7009 3.00542L37.6902 3.00561C29.5677 11.3318 28.2504 18.196 27.3478 32.5714Z" fill="#FFF8F1"/>
<path fill-rule="evenodd" clip-rule="evenodd" d="M37.7009 3.00542L37.6957 3L37.6902 3.00561L37.7009 3.00542Z" fill="#1B1B1B"/>
<path d="M38.3357 73.6711C57.851 73.6711 73.6713 57.8508 73.6713 38.3354C73.6713 18.8201 57.851 2.99983 38.3357 2.99983C38.1237 2.99983 37.9121 3.0017 37.7009 3.00542C45.8238 11.3317 47.7496 18.1959 48.6522 32.5714L59 28.875V60.2946C55.1066 65.0358 52.7225 67.5954 48.0435 72V49.2054C52.0829 49.0363 54.7391 44.8929 54.7391 43.0446C54.7391 41.1964 47.0662 40.3357 41.9565 43.0446C41.6522 43.3527 41.6522 46.279 41.6522 49.2054C41.6522 52.1317 41.6522 55.058 41.3478 55.3661C40.7391 55.9821 38.3043 57.8304 38.3043 57.8304C38.3043 57.8304 35.2609 55.9821 34.6522 55.3661C34.3478 55.058 34.3478 52.1317 34.3478 49.2054C34.3478 46.279 34.3478 43.3527 34.0435 43.0446C28.9338 40.3357 21.2609 41.1964 21.2609 43.0446C21.2609 44.8929 23.9171 49.0363 27.9565 49.2054V72C23.2775 67.5954 20.8934 65.0358 17 60.2946V28.875L27.3478 32.5714C28.2504 18.196 29.5677 11.3318 37.6902 3.00561C18.4727 3.34989 3.00008 19.0358 3.00008 38.3354C3.00008 57.8508 18.8204 73.6711 38.3357 73.6711Z" fill="#1B1B1B"/>
</svg>
